<?xml version="1.0" encoding="UTF-8" standalone="no"?><!-- Generator: Gravit.io --><svg xmlns="http://www.w3.org/2000/svg" xmlns:xlink="http://www.w3.org/1999/xlink" style="isolation:isolate" viewBox="0 0 175 86.928" width="175pt" height="86.928pt"><defs><clipPath id="_clipPath_zBO7R16h7fTCMJHh1hfCDqaAQWiUcGxD"><rect width="175" height="86.928"/></clipPath></defs><g clip-path="url(#_clipPath_zBO7R16h7fTCMJHh1hfCDqaAQWiUcGxD)"><g clip-path="url(#_clipPath_Nv09hRkZEYeMWb0NUjT9nzeR9JGJCSeH)"><text transform="matrix(1,0,0,1,0,63.36)" style="font-family:'Palanquin Dark';font-weight:400;font-size:48px;font-style:normal;word-spacing:35;fill:#000000;stroke:none;">Vict ry</text></g><defs><clipPath id="_clipPath_Nv09hRkZEYeMWb0NUjT9nzeR9JGJCSeH"><rect x="0" y="0" width="175" height="86.928" transform="matrix(1,0,0,1,0,0)"/></clipPath></defs><g><path d=" M 100.016 32.15 C 98.134 33.092 97.229 34.006 96.881 35.317 C 96.828 35.527 96.812 35.697 96.799 36.228 C 96.783 36.845 96.786 36.887 96.85 36.999 C 96.884 37.061 96.951 37.135 96.995 37.156 C 97.293 37.306 98.055 37.065 98.577 36.657 C 98.817 36.468 99.203 36.025 99.377 35.732 C 99.542 35.457 99.789 34.902 99.906 34.546 C 100.061 34.062 100.212 33.36 100.222 33.067 C 100.228 32.91 100.263 32.621 100.298 32.419 C 100.374 32.003 100.374 32 100.342 32 C 100.326 32 100.181 32.07 100.016 32.15 Z " fill="rgb(0,0,0)"/><path d=" M 120.44 32.059 C 120.5 32.317 120.595 33.039 120.569 33.022 C 120.49 32.97 120.651 33.775 120.851 34.438 C 121.079 35.185 121.382 35.774 121.781 36.235 C 122.265 36.796 122.866 37.142 123.432 37.187 C 123.888 37.225 123.983 37.11 124.014 36.496 C 124.112 34.627 123.122 33.294 120.797 32.157 C 120.62 32.07 120.465 32 120.452 32 C 120.436 32 120.433 32.028 120.44 32.059 Z " fill="rgb(0,0,0)"/><path d=" M 95.119 33.367 C 94.613 34.41 94.325 35.258 94.208 36.046 C 94.139 36.507 94.167 37.581 94.259 37.989 C 94.376 38.533 94.638 39.081 94.907 39.357 C 95.024 39.475 95.069 39.5 95.179 39.5 C 95.445 39.5 95.755 39.165 96.002 38.61 C 96.173 38.226 96.328 37.626 96.302 37.459 C 96.287 37.379 96.29 37.365 96.318 37.407 C 96.344 37.449 96.35 37.442 96.334 37.372 C 96.328 37.323 96.331 37.135 96.344 36.953 C 96.391 36.353 96.309 35.711 96.09 35 C 95.961 34.567 95.676 33.856 95.455 33.402 L 95.281 33.039 L 95.119 33.367 Z " fill="rgb(0,0,0)"/><path d=" M 125.346 33.399 C 124.922 34.274 124.615 35.181 124.498 35.893 C 124.403 36.479 124.425 37.396 124.546 37.912 C 124.694 38.551 125.055 39.214 125.368 39.426 C 125.431 39.468 125.526 39.5 125.605 39.5 C 125.824 39.5 126.042 39.238 126.305 38.666 C 126.45 38.348 126.602 37.755 126.577 37.605 C 126.564 37.539 126.57 37.515 126.596 37.532 C 126.618 37.55 126.621 37.543 126.608 37.515 C 126.592 37.49 126.602 37.316 126.621 37.128 C 126.732 36.168 126.422 34.892 125.723 33.451 L 125.523 33.039 L 125.346 33.399 Z " fill="rgb(0,0,0)"/><path d=" M 99.146 36.653 C 98.469 36.904 98.197 37.026 97.808 37.25 C 96.72 37.885 96.056 38.69 95.809 39.674 C 95.733 39.988 95.66 40.713 95.698 40.811 C 95.73 40.895 95.736 40.916 95.742 40.982 C 95.749 41.094 95.916 41.244 96.062 41.272 C 96.223 41.303 96.739 41.261 96.846 41.209 C 96.884 41.191 96.916 41.181 96.916 41.188 C 96.916 41.195 96.755 41.334 96.562 41.498 C 95.455 42.423 94.86 43.27 94.619 44.261 C 94.575 44.449 94.559 44.631 94.559 45.046 C 94.559 45.342 94.572 45.632 94.585 45.691 C 94.6 45.768 94.6 45.782 94.575 45.743 C 94.553 45.705 94.55 45.75 94.562 45.9 C 94.632 46.615 94.977 46.692 95.809 46.172 C 96.119 45.981 96.388 45.74 96.578 45.482 C 96.748 45.248 97.027 44.669 97.147 44.296 C 97.258 43.954 97.4 43.239 97.375 43.134 C 97.362 43.075 97.368 43.058 97.394 43.078 C 97.422 43.096 97.425 43.078 97.413 43.016 C 97.4 42.97 97.413 42.758 97.438 42.548 C 97.463 42.339 97.492 41.917 97.501 41.61 C 97.523 40.989 97.539 40.822 97.577 40.836 C 97.631 40.849 98.023 40.501 98.254 40.232 C 98.64 39.782 98.928 39.255 99.225 38.453 C 99.45 37.846 99.577 37.323 99.482 37.389 C 99.45 37.407 99.564 36.915 99.652 36.639 C 99.706 36.468 99.706 36.465 99.678 36.465 C 99.662 36.465 99.425 36.549 99.146 36.653 Z " fill="rgb(0,0,0)"/><path d=" M 121.117 36.482 C 121.117 36.503 121.224 36.922 121.328 37.316 C 121.341 37.361 121.335 37.372 121.306 37.354 C 121.275 37.333 121.268 37.368 121.281 37.515 C 121.319 37.916 121.79 39.119 122.126 39.677 C 122.214 39.824 122.388 40.065 122.515 40.215 C 122.755 40.501 123.236 40.926 123.236 40.856 C 123.236 40.832 123.242 40.822 123.252 40.832 C 123.271 40.849 123.344 42.363 123.34 42.639 C 123.337 42.771 123.347 42.81 123.363 42.761 C 123.382 42.716 123.385 42.751 123.372 42.848 C 123.353 43.04 123.486 43.783 123.619 44.223 C 123.742 44.631 124.021 45.224 124.207 45.482 C 124.397 45.74 124.666 45.981 124.976 46.172 C 125.482 46.486 125.786 46.574 125.985 46.458 C 126.121 46.382 126.222 46.138 126.2 45.942 C 126.191 45.862 126.194 45.82 126.207 45.845 C 126.222 45.869 126.232 45.817 126.235 45.719 C 126.235 45.628 126.238 45.339 126.241 45.081 C 126.251 44.474 126.156 44.013 125.919 43.5 C 125.647 42.908 124.998 42.13 124.274 41.526 C 123.875 41.195 123.726 41.059 123.91 41.188 C 123.995 41.251 124.533 41.306 124.723 41.272 C 124.868 41.244 125.036 41.094 125.042 40.982 C 125.052 40.884 125.055 40.867 125.08 40.839 C 125.118 40.797 125.106 40.33 125.055 40.019 C 124.935 39.248 124.653 38.683 124.103 38.104 C 123.53 37.501 122.537 36.929 121.436 36.57 C 121.309 36.528 121.183 36.486 121.161 36.475 C 121.135 36.465 121.117 36.468 121.117 36.482 Z " fill="rgb(0,0,0)"/><path d=" M 92.984 37.843 C 92.791 38.554 92.734 38.781 92.664 39.133 C 92.522 39.866 92.478 40.361 92.503 40.947 C 92.516 41.233 92.525 41.509 92.525 41.558 C 92.528 41.938 92.671 42.555 92.842 42.935 C 93.025 43.337 93.357 43.79 93.623 44.003 C 93.816 44.156 93.968 44.181 94.135 44.087 C 94.249 44.02 94.407 43.752 94.521 43.438 C 94.708 42.921 94.749 42.597 94.746 41.697 C 94.746 41.258 94.733 41.104 94.676 40.87 C 94.487 40.093 94.101 39.315 93.427 38.366 C 92.978 37.735 93.006 37.766 92.984 37.843 Z " fill="rgb(0,0,0)"/><path d=" M 127.602 38.042 C 127.146 38.69 127.042 38.844 126.849 39.168 C 126.257 40.166 126.001 41.027 126.026 41.962 C 126.029 42.196 126.048 42.381 126.061 42.37 C 126.074 42.36 126.077 42.395 126.064 42.444 C 126.017 42.656 126.222 43.434 126.422 43.8 C 126.554 44.041 126.681 44.139 126.865 44.139 C 127.042 44.139 127.311 43.912 127.586 43.539 C 127.823 43.207 127.975 42.904 128.092 42.524 C 128.25 42.004 128.282 41.652 128.279 40.616 C 128.275 40.002 128.263 39.834 128.193 39.433 C 128.111 38.966 127.823 37.79 127.791 37.794 C 127.782 37.794 127.696 37.905 127.602 38.042 Z " fill="rgb(0,0,0)"/><path d=" M 91.336 43.431 C 91.352 43.696 91.364 44.017 91.364 44.146 C 91.364 44.271 91.371 44.366 91.38 44.348 C 91.39 44.334 91.399 44.425 91.402 44.55 C 91.409 44.864 91.548 45.635 91.684 46.089 C 92.019 47.226 92.601 48.007 93.443 48.447 C 94.028 48.754 94.3 48.59 94.347 47.896 C 94.36 47.739 94.37 47.341 94.366 47.017 C 94.366 46.441 94.363 46.413 94.262 46.092 C 93.974 45.164 93.373 44.397 92.323 43.623 C 92.051 43.42 91.355 42.953 91.329 42.953 C 91.317 42.953 91.323 43.169 91.336 43.431 Z " fill="rgb(0,0,0)"/><path d=" M 129.107 43.18 C 127.443 44.285 126.637 45.29 126.444 46.511 C 126.393 46.842 126.396 47.624 126.45 47.784 C 126.466 47.826 126.463 47.84 126.441 47.826 C 126.39 47.791 126.482 48.269 126.548 48.394 C 126.684 48.653 126.947 48.66 127.396 48.415 C 128.111 48.025 128.633 47.386 128.968 46.483 C 129.174 45.928 129.389 44.931 129.354 44.7 C 129.345 44.631 129.348 44.592 129.364 44.617 C 129.379 44.638 129.389 44.589 129.389 44.495 C 129.392 44.404 129.408 44.111 129.43 43.842 C 129.452 43.574 129.474 43.263 129.484 43.152 C 129.493 43.044 129.487 42.953 129.474 42.953 C 129.462 42.953 129.297 43.054 129.107 43.18 Z " fill="rgb(0,0,0)"/><path d=" M 96.976 45.245 C 95.717 46.706 95.154 47.979 95.224 49.214 C 95.233 49.423 95.249 49.723 95.255 49.877 C 95.277 50.355 95.439 50.871 95.61 50.993 C 95.828 51.154 96.078 51.07 96.483 50.707 C 96.865 50.358 97.141 49.964 97.318 49.5 C 97.448 49.158 97.552 48.722 97.565 48.447 C 97.571 48.332 97.593 48.049 97.612 47.819 C 97.65 47.397 97.637 46.807 97.577 46.302 C 97.53 45.886 97.349 44.871 97.324 44.871 C 97.312 44.871 97.157 45.039 96.976 45.245 Z " fill="rgb(0,0,0)"/><path d=" M 123.432 45.028 C 123.23 46.002 123.166 46.643 123.179 47.547 C 123.185 47.951 123.195 48.279 123.204 48.272 C 123.214 48.265 123.223 48.349 123.223 48.457 C 123.23 48.701 123.356 49.239 123.486 49.552 C 123.726 50.142 124.223 50.735 124.691 50.997 C 124.976 51.154 125.197 51.07 125.337 50.756 C 125.507 50.369 125.561 49.936 125.558 48.97 C 125.558 48.513 125.545 48.405 125.473 48.108 C 125.251 47.219 124.713 46.277 123.872 45.318 L 123.467 44.857 L 123.432 45.028 Z " fill="rgb(0,0,0)"/><path d=" M 90.779 47.896 C 90.779 47.903 90.836 48.035 90.909 48.189 C 91.057 48.52 91.105 48.649 91.067 48.625 C 91.019 48.59 91.01 48.761 91.048 48.928 C 91.146 49.35 91.886 50.561 92.351 51.049 C 92.743 51.464 93.24 51.823 93.563 51.924 C 93.677 51.959 93.718 51.98 93.658 51.97 C 93.598 51.959 93.411 51.928 93.246 51.9 C 92.876 51.841 92.13 51.778 91.738 51.778 L 91.443 51.778 L 91.611 52.064 C 91.839 52.455 91.839 52.455 91.798 52.427 C 91.741 52.388 91.715 52.57 91.756 52.72 C 91.836 53.013 92.582 54.031 93.035 54.471 C 93.335 54.76 93.737 55.057 93.996 55.186 C 94.306 55.336 94.61 55.441 94.762 55.444 L 94.907 55.447 L 94.765 55.475 C 94.686 55.493 94.373 55.549 94.069 55.601 C 93.765 55.653 93.509 55.702 93.5 55.709 C 93.493 55.716 93.5 55.734 93.515 55.747 C 93.601 55.814 93.952 56.25 93.904 56.232 C 93.848 56.211 93.816 56.267 93.816 56.396 C 93.816 56.529 93.984 56.773 94.262 57.049 C 95.366 58.14 96.258 58.618 97.232 58.629 C 97.432 58.629 97.647 58.622 97.707 58.604 C 97.767 58.59 97.596 58.664 97.327 58.765 C 96.581 59.051 96.347 59.148 96.347 59.173 C 96.347 59.183 96.438 59.271 96.552 59.361 C 96.726 59.501 96.875 59.654 96.764 59.577 C 96.723 59.55 96.663 59.661 96.663 59.766 C 96.663 60.111 98.2 61.025 99.162 61.252 C 99.558 61.346 100.197 61.339 100.567 61.238 C 100.924 61.14 101.392 60.896 101.544 60.732 C 101.668 60.593 101.721 60.411 101.664 60.3 C 101.639 60.24 101.652 60.216 101.756 60.129 C 101.826 60.073 101.883 60.017 101.883 60.003 C 101.883 59.989 101.8 59.864 101.699 59.724 C 101.187 59.016 100.535 58.58 99.776 58.437 C 99.494 58.385 98.612 58.416 98.276 58.489 C 97.862 58.58 97.811 58.58 98.09 58.5 C 98.251 58.454 98.412 58.381 98.476 58.325 C 98.596 58.224 98.669 58.032 98.637 57.896 C 98.621 57.833 98.64 57.805 98.716 57.76 C 98.77 57.732 98.814 57.694 98.814 57.68 C 98.814 57.666 98.764 57.547 98.703 57.418 C 98.188 56.313 97.362 55.671 96.233 55.507 C 95.875 55.454 95.831 55.441 95.945 55.402 C 96.106 55.353 96.211 55.2 96.226 54.991 C 96.23 54.921 96.255 54.875 96.29 54.861 C 96.362 54.837 96.362 54.841 96.252 54.464 C 95.91 53.316 95.287 52.601 94.227 52.155 C 94.097 52.102 94.041 52.067 94.101 52.081 C 94.161 52.099 94.36 52.109 94.544 52.109 C 94.8 52.109 94.901 52.095 94.993 52.047 C 95.116 51.977 95.224 51.781 95.198 51.673 C 95.189 51.631 95.205 51.604 95.243 51.593 C 95.315 51.572 95.315 51.52 95.255 51.161 C 95.062 50.044 94.468 49.179 93.534 48.656 C 93.038 48.38 92.288 48.143 91.427 47.993 C 91.149 47.948 90.89 47.903 90.852 47.892 C 90.811 47.885 90.779 47.885 90.779 47.896 Z " fill="rgb(0,0,0)"/><path d=" M 129.848 47.91 C 129.114 48.035 128.791 48.101 128.44 48.203 C 126.909 48.628 126.033 49.409 125.656 50.686 C 125.574 50.962 125.476 51.53 125.504 51.576 C 125.511 51.593 125.549 51.604 125.586 51.607 C 125.624 51.607 125.637 51.617 125.618 51.628 C 125.564 51.649 125.567 51.76 125.624 51.879 C 125.704 52.05 125.862 52.109 126.257 52.109 C 126.45 52.109 126.649 52.095 126.7 52.081 C 126.754 52.064 126.659 52.113 126.491 52.19 C 126.061 52.381 125.7 52.629 125.412 52.926 C 125.008 53.344 124.726 53.843 124.552 54.457 C 124.451 54.809 124.451 54.841 124.543 54.882 C 124.58 54.9 124.596 54.914 124.577 54.914 C 124.552 54.917 124.549 54.956 124.562 55.032 C 124.609 55.263 124.691 55.364 124.859 55.406 C 124.957 55.43 124.957 55.43 124.881 55.447 C 124.837 55.458 124.653 55.493 124.47 55.524 C 123.451 55.702 122.72 56.243 122.211 57.195 C 122.132 57.342 122.047 57.516 122.021 57.582 C 121.977 57.697 121.977 57.697 122.094 57.771 C 122.157 57.812 122.192 57.847 122.176 57.847 C 122.129 57.847 122.122 57.983 122.164 58.119 C 122.208 58.266 122.404 58.426 122.575 58.458 C 122.644 58.472 122.698 58.489 122.689 58.496 C 122.682 58.503 122.515 58.486 122.315 58.454 C 121.828 58.378 121.066 58.402 120.753 58.5 C 120.069 58.716 119.516 59.141 119.029 59.825 L 118.899 60.007 L 119.025 60.118 C 119.133 60.212 119.149 60.24 119.12 60.296 C 119.067 60.411 119.117 60.593 119.241 60.732 C 119.392 60.896 119.861 61.14 120.218 61.238 C 120.588 61.339 121.227 61.346 121.623 61.252 C 122.572 61.029 124.122 60.108 124.122 59.769 C 124.122 59.668 124.065 59.55 124.024 59.574 C 124.008 59.588 123.995 59.588 123.995 59.581 C 123.995 59.571 124.103 59.48 124.233 59.375 C 124.362 59.274 124.47 59.18 124.47 59.169 C 124.47 59.159 124.403 59.124 124.321 59.093 C 123.217 58.674 122.986 58.583 123.094 58.604 C 123.28 58.646 123.856 58.632 124.074 58.583 C 124.732 58.433 125.457 58.032 126.086 57.46 C 126.849 56.766 127.08 56.438 126.925 56.267 C 126.883 56.225 126.906 56.183 127.086 55.967 C 127.2 55.828 127.288 55.713 127.282 55.706 C 127.269 55.699 126.944 55.636 126.146 55.496 C 125.925 55.454 125.903 55.447 126.023 55.444 C 126.175 55.441 126.479 55.336 126.785 55.186 C 127.225 54.97 127.791 54.481 128.212 53.958 C 128.541 53.55 128.924 52.985 129 52.796 C 129.066 52.633 129.066 52.451 129 52.469 C 128.949 52.479 128.968 52.437 129.183 52.064 L 129.341 51.795 L 129.114 51.785 C 128.826 51.771 127.969 51.834 127.57 51.9 C 127.004 51.991 127.004 51.991 127.203 51.931 C 127.497 51.841 127.975 51.513 128.358 51.129 C 128.968 50.522 129.835 49.019 129.759 48.701 C 129.753 48.666 129.734 48.649 129.718 48.66 C 129.68 48.684 129.727 48.555 129.879 48.22 C 129.952 48.063 130.006 47.924 129.999 47.91 C 129.993 47.896 129.927 47.896 129.848 47.91 Z  M 126.896 52.043 C 126.887 52.053 126.858 52.057 126.836 52.047 C 126.811 52.036 126.82 52.026 126.855 52.026 C 126.89 52.022 126.909 52.033 126.896 52.043 Z  M 122.815 58.531 C 122.806 58.541 122.777 58.545 122.755 58.535 C 122.73 58.524 122.739 58.514 122.774 58.514 C 122.809 58.51 122.828 58.521 122.815 58.531 Z  M 122.942 58.566 C 122.932 58.576 122.904 58.58 122.882 58.569 C 122.856 58.559 122.866 58.548 122.901 58.548 C 122.936 58.545 122.954 58.555 122.942 58.566 Z " fill="rgb(0,0,0)"/><path d=" M 122.546 49.539 C 122.401 50.027 122.255 50.651 122.173 51.133 C 122.116 51.461 122.085 52.943 122.135 52.908 C 122.148 52.898 122.151 52.936 122.141 52.995 C 122.116 53.135 122.208 53.62 122.325 53.951 C 122.562 54.631 123.265 55.475 123.59 55.475 C 123.771 55.475 123.983 55.231 124.15 54.83 C 124.318 54.439 124.362 54.049 124.356 53.051 C 124.353 52.633 124.34 52.472 124.283 52.238 C 124.074 51.359 123.631 50.442 122.945 49.465 C 122.822 49.287 122.711 49.134 122.701 49.12 C 122.689 49.106 122.619 49.294 122.546 49.539 Z " fill="rgb(0,0,0)"/><path d=" M 97.761 49.608 C 96.796 51.031 96.359 52.249 96.426 53.33 C 96.435 53.522 96.451 53.819 96.457 53.993 C 96.473 54.387 96.552 54.705 96.72 55.015 C 96.859 55.273 96.998 55.427 97.125 55.461 C 97.448 55.552 98.197 54.701 98.46 53.951 C 98.567 53.648 98.672 53.131 98.643 53.051 C 98.634 53.02 98.64 52.915 98.659 52.814 C 98.675 52.716 98.691 52.406 98.691 52.127 C 98.694 51.586 98.643 51.136 98.51 50.54 C 98.406 50.062 98.14 49.127 98.112 49.127 C 98.096 49.127 97.938 49.343 97.761 49.608 Z " fill="rgb(0,0,0)"/><path d=" M 99.542 52.305 C 98.944 53.648 98.738 54.509 98.757 55.587 C 98.764 55.887 98.776 56.114 98.789 56.093 C 98.805 56.068 98.805 56.1 98.795 56.159 C 98.735 56.501 99.039 57.394 99.368 57.858 C 99.608 58.193 99.814 58.276 100.032 58.126 C 100.254 57.976 100.649 57.289 100.788 56.818 C 100.851 56.599 100.934 56.131 100.915 56.096 C 100.905 56.082 100.915 55.908 100.934 55.709 C 101.016 54.813 100.772 53.78 100.174 52.493 C 100.042 52.203 99.899 51.917 99.864 51.851 L 99.798 51.729 L 99.542 52.305 Z " fill="rgb(0,0,0)"/><path d=" M 120.867 51.991 C 120.474 52.755 120.139 53.616 119.993 54.23 C 119.87 54.757 119.845 55.046 119.864 55.716 C 119.886 56.543 119.987 56.961 120.294 57.519 C 120.724 58.304 121.031 58.395 121.417 57.858 C 121.714 57.436 121.958 56.766 121.99 56.278 C 121.996 56.152 122.015 55.89 122.031 55.695 C 122.113 54.691 121.854 53.602 121.189 52.148 L 120.999 51.729 L 120.867 51.991 Z " fill="rgb(0,0,0)"/><path d=" M 101.677 54.262 C 101.671 54.286 101.633 54.534 101.592 54.813 C 101.532 55.242 101.522 55.468 101.519 56.313 C 101.513 57.39 101.541 57.711 101.677 58.248 C 101.886 59.058 102.322 59.748 102.905 60.174 C 103.284 60.453 103.502 60.418 103.68 60.055 C 103.793 59.815 103.914 59.34 103.926 59.068 C 103.929 58.964 103.942 58.688 103.955 58.458 C 103.983 57.987 103.952 57.715 103.825 57.275 C 103.616 56.55 103.199 55.859 102.468 55.025 C 102.003 54.495 101.696 54.199 101.677 54.262 Z " fill="rgb(0,0,0)"/><path d=" M 118.598 54.732 C 117.684 55.723 117.222 56.449 116.972 57.286 C 116.871 57.635 116.798 58.196 116.83 58.437 C 116.84 58.524 116.855 58.754 116.862 58.946 C 116.884 59.532 117.07 60.157 117.27 60.296 C 117.513 60.463 117.89 60.258 118.367 59.703 C 118.665 59.361 118.861 59.009 119.016 58.548 C 119.133 58.203 119.228 57.732 119.203 57.635 C 119.19 57.596 119.196 57.568 119.218 57.568 C 119.244 57.568 119.25 57.54 119.241 57.495 C 119.231 57.457 119.244 57.226 119.272 56.982 C 119.304 56.672 119.313 56.382 119.301 56.016 C 119.279 55.35 119.149 54.22 119.095 54.22 C 119.086 54.22 118.861 54.45 118.598 54.732 Z " fill="rgb(0,0,0)"/><path d=" M 104.385 57.471 C 104.55 57.921 104.603 58.095 104.572 58.074 C 104.553 58.06 104.54 58.116 104.54 58.221 C 104.54 58.493 104.904 59.312 105.337 60.014 C 106.017 61.119 107.011 61.789 107.969 61.789 C 108.361 61.789 108.494 61.695 108.539 61.398 C 108.542 61.36 108.564 61.318 108.586 61.304 C 108.618 61.28 108.621 61.21 108.592 60.962 C 108.384 59.061 107.324 58.046 104.91 57.432 C 104.603 57.352 104.344 57.289 104.334 57.289 C 104.325 57.289 104.35 57.373 104.385 57.471 Z " fill="rgb(0,0,0)"/><path d=" M 115.957 57.411 C 114.03 57.893 112.983 58.611 112.49 59.794 C 112.303 60.237 112.142 61.109 112.211 61.29 C 112.227 61.325 112.243 61.391 112.249 61.437 C 112.29 61.698 112.436 61.789 112.816 61.789 C 113.815 61.789 114.793 61.105 115.517 59.895 C 115.865 59.319 116.219 58.517 116.238 58.273 C 116.248 58.133 116.245 58.088 116.216 58.105 C 116.182 58.13 116.207 58.053 116.384 57.572 C 116.473 57.335 116.482 57.289 116.444 57.293 C 116.428 57.293 116.21 57.349 115.957 57.411 Z " fill="rgb(0,0,0)"/><path d=" M 102.901 60.537 C 102.291 60.624 101.525 60.969 100.791 61.492 C 100.45 61.733 99.798 62.253 99.795 62.281 C 99.795 62.295 99.883 62.337 99.994 62.382 C 100.203 62.466 100.285 62.521 100.2 62.521 C 100.168 62.521 100.14 62.563 100.127 62.626 C 100.083 62.853 100.269 62.992 100.842 63.163 C 102.651 63.704 103.948 63.488 104.86 62.487 C 105.097 62.228 105.179 62.03 105.116 61.88 C 105.087 61.806 105.097 61.772 105.208 61.611 C 105.274 61.51 105.331 61.419 105.331 61.409 C 105.331 61.398 105.252 61.325 105.157 61.248 C 104.432 60.666 103.673 60.425 102.901 60.537 Z " fill="rgb(0,0,0)"/><path d=" M 117.077 60.547 C 116.586 60.652 116.074 60.899 115.666 61.231 L 115.454 61.405 L 115.58 61.594 C 115.698 61.765 115.707 61.789 115.672 61.873 C 115.606 62.033 115.685 62.225 115.925 62.487 C 116.836 63.488 118.133 63.704 119.943 63.163 C 120.512 62.992 120.702 62.853 120.658 62.63 C 120.648 62.574 120.614 62.521 120.585 62.515 C 120.557 62.508 120.642 62.452 120.778 62.392 L 121.028 62.288 L 120.629 61.967 C 119.668 61.189 118.889 60.756 118.162 60.589 C 117.804 60.509 117.349 60.491 117.077 60.547 Z " fill="rgb(0,0,0)"/><path d=" M 110.152 61.339 C 110 61.388 109.772 61.629 109.712 61.806 C 109.671 61.925 109.662 62.016 109.677 62.197 C 109.69 62.326 109.696 62.49 109.696 62.556 C 109.69 62.888 109.893 63.23 110.155 63.324 C 110.592 63.484 111.057 63.142 111.079 62.644 C 111.082 62.546 111.104 62.396 111.123 62.305 C 111.155 62.176 111.155 62.096 111.123 61.953 C 111.025 61.468 110.595 61.196 110.152 61.339 Z " fill="rgb(0,0,0)"/><path d=" M 106.77 62.019 C 105.897 62.18 104.913 62.811 103.812 63.906 L 103.642 64.081 L 103.876 64.161 C 104.005 64.206 104.088 64.248 104.059 64.255 C 103.986 64.276 103.952 64.423 103.996 64.527 C 104.047 64.649 104.233 64.74 104.591 64.82 C 106.387 65.221 107.653 64.949 108.545 63.973 C 108.763 63.732 108.893 63.519 108.906 63.376 C 108.921 63.23 108.906 63.146 108.868 63.17 C 108.83 63.198 108.83 63.195 108.991 62.916 C 109.048 62.815 109.095 62.72 109.095 62.699 C 109.095 62.647 108.94 62.539 108.63 62.368 C 107.976 62.005 107.409 61.897 106.77 62.019 Z " fill="rgb(0,0,0)"/><path d=" M 113.078 62.019 C 112.945 62.044 112.733 62.106 112.604 62.159 C 112.363 62.253 111.889 62.511 111.759 62.623 L 111.683 62.685 L 111.813 62.916 C 111.882 63.045 111.927 63.149 111.911 63.149 C 111.854 63.149 111.876 63.428 111.946 63.571 C 111.98 63.648 112.113 63.826 112.237 63.966 C 113.119 64.949 114.394 65.225 116.194 64.82 C 116.552 64.74 116.738 64.649 116.789 64.527 C 116.833 64.423 116.798 64.276 116.726 64.259 C 116.697 64.248 116.783 64.206 116.919 64.157 L 117.165 64.074 L 116.871 63.791 C 115.726 62.699 114.903 62.187 114.018 62.016 C 113.682 61.953 113.404 61.953 113.078 62.019 Z " fill="rgb(0,0,0)"/></g><g style="isolation:isolate"/></g></svg>